<svg width="227" height="167" viewBox="0 0 227 167" fill="none" xmlns="http://www.w3.org/2000/svg">
<path d="M34.655 122.018C33.592 122.318 32.487 121.7 32.1869 120.637L25.3378 96.3737C25.0377 95.3107 25.6562 94.2057 26.7192 93.9056L30.7238 92.7752C31.7868 92.4751 32.8918 93.0936 33.1919 94.1566L40.041 118.42C40.3411 119.483 39.7226 120.588 38.6596 120.888L34.655 122.018ZM38.197 110.233C37.1339 110.533 36.0289 109.914 35.7288 108.851L34.9653 106.147C34.6652 105.084 35.2837 103.979 36.3468 103.679L46.2418 100.885C47.3049 100.585 48.4099 101.204 48.71 102.267L49.4735 104.971C49.7736 106.035 49.1551 107.14 48.092 107.44L38.197 110.233ZM34.9312 98.6641C33.8682 98.9642 32.7632 98.3457 32.4631 97.2826L31.6996 94.5779C31.3995 93.5149 32.018 92.4098 33.081 92.1098L43.5652 89.1502C44.6282 88.8501 45.7332 89.4686 46.0333 90.5317L46.7968 93.2364C47.0969 94.2994 46.4784 95.4045 45.4154 95.7045L34.9312 98.6641Z" fill="white"/>
<path d="M58.7772 115.209C57.7142 115.509 56.6092 114.89 56.3091 113.827L49.46 89.5644C49.1599 88.5013 49.7784 87.3963 50.8414 87.0962L54.8459 85.9658C55.9089 85.6657 57.014 86.2842 57.314 87.3473L64.1632 111.61C64.4632 112.673 63.8447 113.778 62.7817 114.078L58.7772 115.209ZM65.1783 113.402C64.1152 113.702 63.0102 113.083 62.7102 112.02L61.9021 109.158C61.602 108.095 62.2205 106.99 63.2835 106.69L72.511 104.085C73.574 103.785 74.679 104.403 74.9791 105.466L75.7872 108.329C76.0873 109.392 75.4688 110.497 74.4058 110.797L65.1783 113.402Z" fill="white"/>
<path d="M81.2503 108.865C80.1873 109.165 79.0823 108.546 78.7822 107.483L71.9331 83.2205C71.633 82.1575 72.2515 81.0524 73.3145 80.7524L77.319 79.6219C78.3821 79.3219 79.4871 79.9403 79.7872 81.0034L86.6363 105.266C86.9364 106.329 86.3179 107.434 85.2548 107.734L81.2503 108.865Z" fill="white"/>
<path d="M105.745 102.462C103.572 103.075 101.456 103.289 99.3967 103.103C97.3561 102.883 95.4562 102.311 93.6971 101.387C91.9642 100.455 90.4692 99.2143 89.2121 97.665C87.9551 96.1157 87.033 94.3013 86.446 92.2218C85.8516 90.116 85.6981 88.0705 85.9857 86.0852C86.2994 84.0924 86.9811 82.2516 88.0308 80.5628C89.0991 78.8402 90.4755 77.3574 92.1599 76.1146C93.8368 74.8455 95.7487 73.9079 97.8954 73.3019C100.487 72.5703 102.931 72.3637 105.225 72.6822C106.867 72.9023 108.357 73.3358 109.694 73.9829C110.627 74.4337 110.892 75.5892 110.388 76.4941L108.534 79.8286C107.966 80.8491 106.657 81.144 105.591 80.6655C104.965 80.384 104.349 80.1786 103.743 80.0493C102.54 79.7921 101.205 79.8705 99.7393 80.2843C98.3517 80.676 97.1842 81.3466 96.2368 82.2962C95.282 83.2194 94.624 84.343 94.2628 85.667C93.9278 86.9836 93.9758 88.4053 94.4068 89.932C94.8377 91.4587 95.5178 92.7162 96.4468 93.7044C97.3947 94.6589 98.5076 95.2968 99.7855 95.6181C101.063 95.9395 102.435 95.8932 103.901 95.4794C105.315 95.0803 106.428 94.4677 107.241 93.6414C108.054 92.8152 108.564 91.8186 108.771 90.6516C108.878 90.1178 108.919 89.5612 108.896 88.9819C108.857 88.0221 109.737 87.1612 110.656 87.4387C111.839 87.7956 111.798 89.4838 110.6 89.7831L103.654 91.5181C102.605 91.78 101.538 91.1613 101.244 90.121L100.531 87.5956C100.231 86.5326 100.85 85.4276 101.913 85.1275L114.315 81.6264C114.969 81.4417 115.649 81.8224 115.834 82.4765C116.785 85.8458 116.98 88.8887 116.418 91.605C115.883 94.314 114.69 96.5975 112.84 98.4555C111.016 100.306 108.651 101.641 105.745 102.462Z" fill="white"/>
<path d="M125.046 96.5019C123.983 96.802 122.878 96.1835 122.578 95.1204L115.729 70.8575C115.429 69.7945 116.047 68.6895 117.11 68.3894L121.115 67.2589C122.178 66.9589 123.283 67.5774 123.583 68.6404L130.432 92.9033C130.732 93.9664 130.114 95.0714 129.051 95.3715L125.046 96.5019ZM141.932 91.7351C140.869 92.0352 139.764 91.4167 139.464 90.3537L132.615 66.0907C132.315 65.0277 132.933 63.9227 133.997 63.6226L138.001 62.4922C139.064 62.1921 140.169 62.8106 140.469 63.8736L147.318 88.1365C147.618 89.1996 147 90.3046 145.937 90.6047L141.932 91.7351ZM126.206 84.2381C125.143 84.5382 124.038 83.9197 123.738 82.8566L122.974 80.1519C122.674 79.0889 123.292 77.9838 124.355 77.6838L136.175 74.3473C137.238 74.0472 138.343 74.6657 138.643 75.7287L139.406 78.4335C139.707 79.4965 139.088 80.6015 138.025 80.9016L126.206 84.2381Z" fill="white"/>
<path d="M161.098 86.3248C160.035 86.6249 158.93 86.0064 158.63 84.9434L151.781 60.6804C151.481 59.6174 152.099 58.5124 153.162 58.2123L157.167 57.0819C158.23 56.7818 159.335 57.4003 159.635 58.4633L166.484 82.7263C166.784 83.7893 166.166 84.8943 165.103 85.1944L161.098 86.3248ZM146.693 67.2858C145.629 67.5859 144.524 66.9674 144.224 65.9044L143.416 63.0417C143.116 61.9786 143.735 60.8736 144.798 60.5735L165.571 54.7096C166.634 54.4095 167.739 55.028 168.039 56.091L168.847 58.9537C169.147 60.0167 168.529 61.1218 167.465 61.4218L146.693 67.2858Z" fill="white"/>
<path d="M180.308 80.902C179.245 81.2021 178.14 80.5836 177.84 79.5206L170.991 55.2576C170.691 54.1946 171.31 53.0896 172.373 52.7895L176.377 51.6591C177.44 51.359 178.545 51.9775 178.845 53.0405L185.694 77.3035C185.994 78.3665 185.376 79.4715 184.313 79.7716L180.308 80.902Z" fill="white"/>
<path d="M218.337 46.5449C226.492 46.4646 229.525 57.2086 222.532 61.4044L201.277 74.157C196.757 76.8693 190.894 74.544 189.462 69.4704L185.931 56.9617C184.499 51.8882 188.28 46.8406 193.552 46.7887L218.337 46.5449Z" fill="white"/>
<path d="M113.257 2.34771L148.856 43.4671C152.212 47.3432 150.399 53.3928 145.465 54.7856L131.668 58.6805C128.191 59.662 124.538 57.8362 123.236 54.4661L105.016 7.29975C103.981 4.61805 105.476 1.62651 108.243 0.845502C110.064 0.331331 112.018 0.916816 113.257 2.34771Z" fill="white"/>
<path d="M156.074 154.024L164.916 100.36C165.75 95.3013 161.041 91.0923 156.107 92.4851L142.31 96.3801C138.833 97.3616 136.674 100.828 137.327 104.381L146.46 154.113C146.979 156.94 149.818 158.708 152.585 157.927C154.406 157.413 155.766 155.892 156.074 154.024Z" fill="white"/>
<path d="M6.03571 54.8231L38.4404 80.4001C40.3635 81.9181 39.7546 84.9765 37.3967 85.6421L25.7943 88.9174C24.5871 89.2581 23.2953 88.8119 22.5559 87.7987L1.5771 59.0515C0.535183 57.6238 0.947157 55.6093 2.46593 54.7052L2.64253 54.6001C3.71058 53.9643 5.06006 54.053 6.03571 54.8231Z" fill="white"/>
<path d="M36.9646 164.388L51.2116 125.642C52.0571 123.342 49.9388 121.054 47.5809 121.719L35.9784 124.995C34.7712 125.335 33.9035 126.391 33.8031 127.641L30.953 163.115C30.8114 164.877 32.216 166.379 33.9833 166.355L34.1889 166.352C35.4317 166.336 36.5356 165.555 36.9646 164.388Z" fill="white"/>
<path d="M34.655 122.018C33.592 122.318 32.487 121.7 32.1869 120.637L25.3378 96.3737C25.0377 95.3107 25.6562 94.2057 26.7192 93.9056L30.7238 92.7752C31.7868 92.4751 32.8918 93.0936 33.1919 94.1566L40.041 118.42C40.3411 119.483 39.7226 120.588 38.6596 120.888L34.655 122.018ZM38.197 110.233C37.1339 110.533 36.0289 109.914 35.7288 108.851L34.9653 106.147C34.6652 105.084 35.2837 103.979 36.3468 103.679L46.2418 100.885C47.3049 100.585 48.4099 101.204 48.71 102.267L49.4735 104.971C49.7736 106.035 49.1551 107.14 48.092 107.44L38.197 110.233ZM34.9312 98.6641C33.8682 98.9642 32.7632 98.3457 32.4631 97.2826L31.6996 94.5779C31.3995 93.5149 32.018 92.4098 33.081 92.1098L43.5652 89.1502C44.6282 88.8501 45.7332 89.4686 46.0333 90.5317L46.7968 93.2364C47.0969 94.2994 46.4784 95.4045 45.4154 95.7045L34.9312 98.6641Z" stroke="white"/>
<path d="M58.7772 115.209C57.7142 115.509 56.6092 114.89 56.3091 113.827L49.46 89.5644C49.1599 88.5013 49.7784 87.3963 50.8414 87.0962L54.8459 85.9658C55.9089 85.6657 57.014 86.2842 57.314 87.3473L64.1632 111.61C64.4632 112.673 63.8447 113.778 62.7817 114.078L58.7772 115.209ZM65.1783 113.402C64.1152 113.702 63.0102 113.083 62.7102 112.02L61.9021 109.158C61.602 108.095 62.2205 106.99 63.2835 106.69L72.511 104.085C73.574 103.785 74.679 104.403 74.9791 105.466L75.7872 108.329C76.0873 109.392 75.4688 110.497 74.4058 110.797L65.1783 113.402Z" stroke="white"/>
<path d="M81.2503 108.865C80.1873 109.165 79.0823 108.546 78.7822 107.483L71.9331 83.2205C71.633 82.1575 72.2515 81.0524 73.3145 80.7524L77.319 79.6219C78.3821 79.3219 79.4871 79.9403 79.7872 81.0034L86.6363 105.266C86.9364 106.329 86.3179 107.434 85.2548 107.734L81.2503 108.865Z" stroke="white"/>
<path d="M105.745 102.462C103.572 103.075 101.456 103.289 99.3967 103.103C97.3561 102.883 95.4562 102.311 93.6971 101.387C91.9642 100.455 90.4692 99.2143 89.2121 97.665C87.9551 96.1157 87.033 94.3013 86.446 92.2218C85.8516 90.116 85.6981 88.0705 85.9857 86.0852C86.2994 84.0924 86.9811 82.2516 88.0308 80.5628C89.0991 78.8402 90.4755 77.3574 92.1599 76.1146C93.8368 74.8455 95.7487 73.9079 97.8954 73.3019C100.487 72.5703 102.931 72.3637 105.225 72.6822C106.867 72.9023 108.357 73.3358 109.694 73.9829C110.627 74.4337 110.892 75.5892 110.388 76.4941L108.534 79.8286C107.966 80.8491 106.657 81.144 105.591 80.6655C104.965 80.384 104.349 80.1786 103.743 80.0493C102.54 79.7921 101.205 79.8705 99.7393 80.2843C98.3517 80.676 97.1842 81.3466 96.2368 82.2962C95.282 83.2194 94.624 84.343 94.2628 85.667C93.9278 86.9836 93.9758 88.4053 94.4068 89.932C94.8377 91.4587 95.5178 92.7162 96.4468 93.7044C97.3947 94.6589 98.5076 95.2968 99.7855 95.6181C101.063 95.9395 102.435 95.8932 103.901 95.4794C105.315 95.0803 106.428 94.4677 107.241 93.6414C108.054 92.8152 108.564 91.8186 108.771 90.6516C108.878 90.1178 108.919 89.5612 108.896 88.9819C108.857 88.0221 109.737 87.1612 110.656 87.4387C111.839 87.7956 111.798 89.4838 110.6 89.7831L103.654 91.5181C102.605 91.78 101.538 91.1613 101.244 90.121L100.531 87.5956C100.231 86.5326 100.85 85.4276 101.913 85.1275L114.315 81.6264C114.969 81.4417 115.649 81.8224 115.834 82.4765C116.785 85.8458 116.98 88.8887 116.418 91.605C115.883 94.314 114.69 96.5975 112.84 98.4555C111.016 100.306 108.651 101.641 105.745 102.462Z" stroke="white"/>
<path d="M125.046 96.5019C123.983 96.802 122.878 96.1835 122.578 95.1204L115.729 70.8575C115.429 69.7945 116.047 68.6895 117.11 68.3894L121.115 67.2589C122.178 66.9589 123.283 67.5774 123.583 68.6404L130.432 92.9033C130.732 93.9664 130.114 95.0714 129.051 95.3715L125.046 96.5019ZM141.932 91.7351C140.869 92.0352 139.764 91.4167 139.464 90.3537L132.615 66.0907C132.315 65.0277 132.933 63.9227 133.997 63.6226L138.001 62.4922C139.064 62.1921 140.169 62.8106 140.469 63.8736L147.318 88.1365C147.618 89.1996 147 90.3046 145.937 90.6047L141.932 91.7351ZM126.206 84.2381C125.143 84.5382 124.038 83.9197 123.738 82.8566L122.974 80.1519C122.674 79.0889 123.292 77.9838 124.355 77.6838L136.175 74.3473C137.238 74.0472 138.343 74.6657 138.643 75.7287L139.406 78.4335C139.707 79.4965 139.088 80.6015 138.025 80.9016L126.206 84.2381Z" stroke="white"/>
<path d="M161.098 86.3248C160.035 86.6249 158.93 86.0064 158.63 84.9434L151.781 60.6804C151.481 59.6174 152.099 58.5124 153.162 58.2123L157.167 57.0819C158.23 56.7818 159.335 57.4003 159.635 58.4633L166.484 82.7263C166.784 83.7893 166.166 84.8943 165.103 85.1944L161.098 86.3248ZM146.693 67.2858C145.629 67.5859 144.524 66.9674 144.224 65.9044L143.416 63.0417C143.116 61.9786 143.735 60.8736 144.798 60.5735L165.571 54.7096C166.634 54.4095 167.739 55.028 168.039 56.091L168.847 58.9537C169.147 60.0167 168.529 61.1218 167.465 61.4218L146.693 67.2858Z" stroke="white"/>
<path d="M180.308 80.902C179.245 81.2021 178.14 80.5836 177.84 79.5206L170.991 55.2576C170.691 54.1946 171.31 53.0896 172.373 52.7895L176.377 51.6591C177.44 51.359 178.545 51.9775 178.845 53.0405L185.694 77.3035C185.994 78.3665 185.376 79.4715 184.313 79.7716L180.308 80.902Z" stroke="white"/>
<path d="M218.337 46.5449C226.492 46.4646 229.525 57.2086 222.532 61.4044L201.277 74.157C196.757 76.8693 190.894 74.544 189.462 69.4704L185.931 56.9617C184.499 51.8882 188.28 46.8406 193.552 46.7887L218.337 46.5449Z" stroke="white"/>
<path d="M113.257 2.34771L148.856 43.4671C152.212 47.3432 150.399 53.3928 145.465 54.7856L131.668 58.6805C128.191 59.662 124.538 57.8362 123.236 54.4661L105.016 7.29975C103.981 4.61805 105.476 1.62651 108.243 0.845502C110.064 0.331331 112.018 0.916816 113.257 2.34771Z" stroke="white"/>
<path d="M156.074 154.024L164.916 100.36C165.75 95.3013 161.041 91.0923 156.107 92.4851L142.31 96.3801C138.833 97.3616 136.674 100.828 137.327 104.381L146.46 154.113C146.979 156.94 149.818 158.708 152.585 157.927C154.406 157.413 155.766 155.892 156.074 154.024Z" stroke="white"/>
<path d="M6.03571 54.8231L38.4404 80.4001C40.3635 81.9181 39.7546 84.9765 37.3967 85.6421L25.7943 88.9174C24.5871 89.2581 23.2953 88.8119 22.5559 87.7987L1.5771 59.0515C0.535183 57.6238 0.947157 55.6093 2.46593 54.7052L2.64253 54.6001C3.71058 53.9643 5.06006 54.053 6.03571 54.8231Z" stroke="white"/>
<path d="M36.9646 164.388L51.2116 125.642C52.0571 123.342 49.9388 121.054 47.5809 121.719L35.9784 124.995C34.7712 125.335 33.9035 126.391 33.8031 127.641L30.953 163.115C30.8114 164.877 32.216 166.379 33.9833 166.355L34.1889 166.352C35.4317 166.336 36.5356 165.555 36.9646 164.388Z" stroke="white"/>
</svg>
